HIERARCHY
ROOT Hips
{
	OFFSET 4.076200 -17.275196 43.303001
	CHANNELS 6 Xposition Yposition Zposition Zrotation Xrotation Yrotation
	JOINT Chest
	{
		OFFSET -0.689800 0.941999 5.341000
		CHANNELS 6 Xposition Yposition Zposition Zrotation Xrotation Yrotation
		JOINT Chest2
		{
			OFFSET 0.000000 0.000000 4.278900
			CHANNELS 6 Xposition Yposition Zposition Zrotation Xrotation Yrotation
			JOINT Neck
			{
				OFFSET 0.000000 0.000000 9.970299
				CHANNELS 6 Xposition Yposition Zposition Zrotation Xrotation Yrotation
				JOINT Head
				{
					OFFSET 0.000000 0.000002 2.173901
					CHANNELS 6 Xposition Yposition Zposition Zrotation Xrotation Yrotation
					End Site
					{
						OFFSET 0.000000 0.000000 6.488197
					}
				}
			}
			JOINT LeftCollar
			{
				OFFSET 2.472300 -0.285801 5.433899
				CHANNELS 6 Xposition Yposition Zposition Zrotation Xrotation Yrotation
				JOINT LeftShoulder
				{
					OFFSET 5.327700 0.000000 0.000000
					CHANNELS 6 Xposition Yposition Zposition Zrotation Xrotation Yrotation
					JOINT LeftElbow
					{
						OFFSET 0.000000 0.000000 -10.713001
						CHANNELS 6 Xposition Yposition Zposition Zrotation Xrotation Yrotation
						JOINT LeftWrist
						{
							OFFSET 0.000000 -0.000002 -13.396900
							CHANNELS 6 Xposition Yposition Zposition Zrotation Xrotation Yrotation
							End Site
							{
								OFFSET 0.000000 0.000000 -2.173901
							}
						}
					}
				}
			}
			JOINT RightCollar
			{
				OFFSET -2.589400 -1.358400 6.105000
				CHANNELS 6 Xposition Yposition Zposition Zrotation Xrotation Yrotation
				JOINT RightShoulder
				{
					OFFSET -4.580200 0.000000 0.000000
					CHANNELS 6 Xposition Yposition Zposition Zrotation Xrotation Yrotation
					JOINT RightElbow
					{
						OFFSET 0.000000 0.000000 -10.761101
						CHANNELS 6 Xposition Yposition Zposition Zrotation Xrotation Yrotation
						JOINT RightWrist
						{
							OFFSET 0.000000 -0.000002 -13.028500
							CHANNELS 6 Xposition Yposition Zposition Zrotation Xrotation Yrotation
							End Site
							{
								OFFSET 0.000000 0.000000 -2.173901
							}
						}
					}
				}
			}
		}
	}
	JOINT LeftHip
	{
		OFFSET 2.532500 0.486900 -2.489700
		CHANNELS 6 Xposition Yposition Zposition Zrotation Xrotation Yrotation
		JOINT LeftKnee
		{
			OFFSET 0.000000 -0.000002 -18.199398
			CHANNELS 6 Xposition Yposition Zposition Zrotation Xrotation Yrotation
			JOINT LeftAnkle
			{
				OFFSET 0.000000 -0.000002 -16.083900
				CHANNELS 6 Xposition Yposition Zposition Zrotation Xrotation Yrotation
				End Site
				{
					OFFSET 0.000000 -8.641399 0.000000
				}
			}
		}
	}
	JOINT RightHip
	{
		OFFSET -2.112700 -0.049900 -2.711102
		CHANNELS 6 Xposition Yposition Zposition Zrotation Xrotation Yrotation
		JOINT RightKnee
		{
			OFFSET 0.000000 -0.000002 -19.127298
			CHANNELS 6 Xposition Yposition Zposition Zrotation Xrotation Yrotation
			JOINT RightAnkle
			{
				OFFSET 0.000000 -0.000002 -14.874901
				CHANNELS 6 Xposition Yposition Zposition Zrotation Xrotation Yrotation
				End Site
				{
					OFFSET 0.000000 -8.198299 0.000000
				}
			}
		}
	}
}
MOTION
Frames: 7
Frame Time: 0.041667
10.897698 -68.244789 38.550602 -84.952793 2.334168 0.413306 -0.689802 0.942000 5.340997 -7.527624 -2.245246 2.072514 -0.000001 -0.000000 4.278903 3.214342 0.525007 0.090601 -0.000010 -0.000002 9.970300 -2.232460 8.467084 -4.186242 0.000009 -0.000002 2.173899 0.114488 -0.984083 -0.139413 2.472291 -0.285801 5.433900 -10.626232 -0.157812 -16.142730 5.327682 -0.000004 0.000010 -22.326485 -43.928338 -35.726005 0.000007 -0.000003 -10.713001 30.678201 -40.553753 74.622699 0.000001 0.000000 -13.396892 -73.030295 2.236881 -94.420453 -2.589412 -1.358400 6.105000 11.361522 -1.840811 4.712149 -4.580194 0.000003 -0.000002 37.354342 -31.990294 46.900703 0.000005 -0.000000 -10.761093 -57.694191 -49.446260 -85.639132 -0.000002 -0.000002 -13.028505 -104.556269 2.468263 -146.756450 2.532493 0.486899 -2.489699 31.831154 -30.632463 8.508524 -0.000003 -0.000007 -18.199398 -115.107621 54.012880 98.476103 0.000002 -0.000001 -16.083900 -8.752573 53.119979 40.301688 -2.112697 -0.049903 -2.711101 -33.247264 -30.268140 -21.551678 -0.000010 0.000004 -19.127295 748.700967 74.892334 -736.742890 0.000000 -0.000003 -14.874899 -21.602440 12.385917 16.525542
10.759899 -68.255295 38.438000 -84.934481 2.010030 0.711537 -0.689808 0.941998 5.340995 -7.610721 -1.828414 1.830325 0.000001 -0.000001 4.278899 3.163999 0.479626 0.083251 0.000007 -0.000002 9.970298 -2.225237 8.496995 -4.297247 0.000007 0.000004 2.173899 0.122594 -0.895420 -0.101772 2.472312 -0.285801 5.433896 -10.666227 -0.163019 -16.163897 5.327709 -0.000005 -0.000005 -22.444912 -43.774846 -35.820818 -0.000004 -0.000001 -10.712999 30.875966 -40.340405 74.707598 -0.000003 -0.000009 -13.396894 -73.244025 2.075763 -94.441183 -2.589394 -1.358400 6.104992 11.256844 -1.837866 4.535108 -4.580204 -0.000001 0.000004 37.537856 -31.896744 47.057340 -0.000000 0.000000 -10.761105 -57.683208 -49.479533 -85.584675 0.000001 -0.000007 -13.028502 -104.591138 2.488493 -146.833207 2.532489 0.486895 -2.489702 31.638034 -30.504875 8.309640 0.000000 0.000006 -18.199398 -115.991693 54.160941 98.866093 -0.000005 0.000001 -16.083902 -10.002222 53.721395 40.350152 -2.112706 -0.049903 -2.711106 -33.220896 -29.911594 -21.566000 0.000002 -0.000000 -19.127298 752.872409 75.218797 -740.735163 0.000003 -0.000001 -14.874902 -22.555209 11.970824 16.106090
10.621099 -68.262390 38.327797 -84.958995 1.826809 1.069643 -0.689812 0.942002 5.340990 -7.193868 -1.565368 1.579634 -0.000014 -0.000000 4.278900 2.716747 0.374203 0.060831 -0.000011 -0.000000 9.970301 -2.128964 8.602201 -4.519742 0.000000 0.000002 2.173894 0.058556 -0.813617 -0.016767 2.472289 -0.285802 5.433906 -11.054384 -0.064590 -15.839613 5.327691 -0.000006 -0.000006 -22.932628 -43.314153 -36.617816 -0.000002 -0.000003 -10.713002 31.265310 -40.301483 74.694498 -0.000003 -0.000008 -13.396891 -73.341779 1.931147 -94.282920 -2.589405 -1.358399 6.105006 10.917172 -1.988933 3.807655 -4.580195 0.000002 0.000002 38.159212 -31.158756 47.603775 0.000003 -0.000013 -10.761100 -57.993483 -49.441646 -85.677114 -0.000000 0.000003 -13.028506 -104.701472 2.481187 -146.442944 2.532481 0.486901 -2.489702 31.284964 -30.516910 8.061035 0.000000 0.000007 -18.199396 -116.803270 54.890604 99.462827 0.000006 -0.000006 -16.083893 -11.760998 54.515493 39.714142 -2.112710 -0.049897 -2.711109 -33.518870 -29.587727 -21.905614 0.000003 0.000003 -19.127295 754.389749 75.666106 -742.104698 -0.000004 -0.000002 -14.874901 -23.201133 11.789491 16.447977
10.484697 -68.271896 38.225399 -85.065505 1.733598 1.345190 -0.689811 0.941996 5.340995 -7.151218 -1.422846 1.315567 0.000003 -0.000003 4.278896 2.590518 0.395075 0.061305 -0.000006 0.000000 9.970293 -1.976167 8.534145 -4.575896 0.000010 -0.000000 2.173898 0.100879 -0.885869 0.018857 2.472294 -0.285804 5.433895 -10.936030 -0.100920 -15.895392 5.327704 0.000003 -0.000004 -23.119265 -43.263487 -36.692036 0.000002 -0.000003 -10.713000 31.370420 -40.378149 74.725780 -0.000006 -0.000004 -13.396896 -73.570112 1.671175 -94.023845 -2.589401 -1.358400 6.104997 10.905764 -2.022569 3.780854 -4.580201 -0.000001 0.000006 37.869287 -31.557571 47.420518 0.000002 0.000000 -10.761106 -57.524222 -49.192125 -85.636522 0.000002 0.000002 -13.028500 -104.397686 2.565800 -146.710346 2.532493 0.486895 -2.489705 31.235562 -30.610606 8.055130 -0.000005 0.000003 -18.199398 -117.792213 55.446205 100.075556 -0.000001 -0.000002 -16.083899 -13.685897 55.207217 39.549056 -2.112707 -0.049905 -2.711114 -33.759965 -29.392312 -22.263072 0.000005 0.000000 -19.127296 756.466127 76.031644 -743.955843 0.000003 -0.000001 -14.874903 -23.988254 11.679989 16.754934
10.347898 -68.287186 38.131504 -85.124292 1.795075 1.529687 -0.689817 0.941998 5.340998 -7.002763 -1.463205 1.134143 -0.000001 -0.000003 4.278899 2.388719 0.360540 0.053419 -0.000015 -0.000002 9.970292 -1.985392 8.505432 -4.640293 -0.000001 0.000002 2.173897 0.069680 -0.844943 0.046623 2.472278 -0.285801 5.433893 -11.084486 -0.064447 -15.709686 5.327698 -0.000005 0.000000 -23.594398 -42.957177 -37.259484 0.000003 0.000003 -10.712996 31.699202 -40.477849 74.740650 0.000002 0.000001 -13.396895 -73.554860 1.519753 -93.875356 -2.589418 -1.358400 6.104997 11.009183 -1.989772 3.534993 -4.580203 0.000004 -0.000005 37.621064 -31.568964 47.498860 0.000005 0.000007 -10.761101 -57.338427 -49.292297 -85.673884 0.000005 0.000007 -13.028501 -104.534993 2.606848 -146.613057 2.532489 0.486896 -2.489703 31.639649 -30.844742 8.434730 0.000002 0.000001 -18.199398 -119.539935 55.361142 101.035614 -0.000005 -0.000007 -16.083900 -14.666641 54.917685 39.965691 -2.112720 -0.049904 -2.711102 -33.610702 -29.408732 -22.420782 -0.000001 0.000004 -19.127293 757.453116 76.342780 -745.135007 0.000000 -0.000000 -14.874901 -24.604040 11.551235 17.034779
10.215199 -68.302094 38.040905 -85.160656 1.819790 1.617271 -0.689806 0.941994 5.341007 -6.894369 -1.452314 1.069891 0.000000 -0.000002 4.278899 2.197696 0.384319 0.053101 0.000000 -0.000001 9.970301 -2.050962 8.382133 -4.668264 -0.000002 0.000006 2.173909 0.127907 -0.861654 0.021421 2.472292 -0.285804 5.433900 -11.076503 -0.103267 -15.757853 5.327706 0.000001 -0.000001 -23.765682 -42.961299 -37.431872 0.000004 0.000000 -10.712995 31.745780 -40.377555 74.776822 0.000007 -0.000005 -13.396892 -73.843292 1.310794 -93.622236 -2.589402 -1.358400 6.104998 10.924999 -2.038844 3.479095 -4.580198 -0.000003 0.000003 37.784668 -31.344179 47.502750 -0.000002 -0.000002 -10.761104 -57.857324 -49.185183 -85.980525 0.000001 0.000001 -13.028498 -104.369191 2.524516 -146.431674 2.532487 0.486892 -2.489691 31.658924 -31.019765 8.738410 -0.000002 -0.000000 -18.199400 -120.782320 55.324963 101.815902 -0.000012 -0.000004 -16.083897 -15.486583 54.781215 40.029403 -2.112708 -0.049906 -2.711102 -34.000214 -29.358492 -22.653152 0.000002 0.000001 -19.127293 759.167057 76.732941 -746.635845 0.000003 -0.000002 -14.874901 -24.755961 11.312048 17.046021
10.083497 -68.317490 37.957405 -85.329697 2.232348 1.752600 -0.689793 0.941999 5.340995 -6.749890 -1.918442 0.940399 -0.000006 -0.000002 4.278898 2.131986 0.436519 0.059600 0.000000 -0.000000 9.970298 -2.140044 8.302759 -4.684231 -0.000007 0.000004 2.173896 0.145892 -0.877184 0.046328 2.472296 -0.285803 5.433898 -11.145523 -0.071914 -15.826433 5.327698 0.000003 -0.000006 -23.904491 -42.939313 -37.605796 0.000007 -0.000011 -10.713009 31.604877 -40.789893 74.685878 -0.000000 -0.000006 -13.396904 -73.685686 1.069840 -93.335758 -2.589397 -1.358400 6.104998 10.970307 -2.037593 3.341550 -4.580194 -0.000003 -0.000005 37.624732 -31.378220 47.482345 -0.000000 0.000001 -10.761103 -57.851006 -49.026067 -86.053888 0.000001 -0.000003 -13.028490 -104.189987 2.501254 -146.501574 2.532511 0.486898 -2.489699 31.935970 -31.580035 9.280036 0.000001 0.000000 -18.199398 -122.080247 54.658445 102.457646 -0.000003 -0.000007 -16.083900 -16.076005 54.087319 40.853889 -2.112693 -0.049902 -2.711108 -34.208067 -29.630228 -23.044930 -0.000003 -0.000001 -19.127296 759.949032 77.084518 -747.474046 0.000004 -0.000001 -14.874896 -24.811028 11.116220 17.247805
